<svg width="3129" height="1960" viewBox="0 0 3129 1960" fill="none" xmlns="http://www.w3.org/2000/svg">
<path d="M425.551 1105.81C538.414 1105.81 646.655 1150.61 726.461 1230.38C806.268 1310.14 851.102 1418.32 851.102 1531.11C851.102 1643.91 806.268 1752.09 726.461 1831.85C646.655 1911.61 538.414 1956.42 425.551 1956.42C312.688 1956.42 204.447 1911.61 124.641 1831.85C44.8347 1752.09 0 1643.91 0 1531.11C0 1418.32 44.8347 1310.14 124.641 1230.38C204.447 1150.61 312.688 1105.81 425.551 1105.81ZM983.496 0.00164683C1047.52 -0.176395 1110.75 14.084 1168.49 41.7207C1226.23 69.3573 1276.99 109.658 1316.98 159.621C1356.97 209.583 1385.17 267.92 1399.47 330.286C1413.78 392.653 1413.82 457.44 1399.59 519.824C1371.22 652.142 1342.85 803.363 1418.5 916.779L1541.44 1086.9L1569.81 1105.81C1582.42 1105.81 1591.88 1099.5 1598.18 1086.9L1721.12 907.328C1796.77 803.363 1768.4 652.142 1740.03 529.275C1726.73 467.263 1727.47 403.063 1742.2 341.375C1756.93 279.686 1785.28 222.072 1825.17 172.749C1865.06 123.426 1915.49 83.6439 1972.75 56.3151C2030.01 28.9862 2092.67 14.8026 2156.13 14.8026C2219.58 14.8026 2282.24 28.9862 2339.5 56.3151C2396.76 83.6439 2447.19 123.426 2487.08 172.749C2526.97 222.072 2555.32 279.686 2570.05 341.375C2584.78 403.063 2585.52 467.263 2572.22 529.275C2543.85 652.142 2515.48 793.912 2572.22 907.328L2695.16 1096.35C2783.72 1094.63 2870.62 1120.57 2943.73 1170.56C3016.84 1220.54 3072.52 1292.09 3103 1375.21C3133.49 1458.33 3137.26 1548.89 3113.79 1634.26C3090.33 1719.63 3040.79 1795.55 2972.09 1851.44C2903.39 1907.32 2818.95 1940.39 2730.55 1946.03C2642.14 1951.67 2554.19 1929.59 2478.94 1882.88C2403.69 1836.18 2344.89 1767.16 2310.76 1685.47C2276.63 1603.78 2268.85 1513.47 2288.52 1427.15C2316.89 1304.28 2345.26 1162.51 2288.52 1049.1L2175.04 860.071H2156.13L2033.19 1039.65C1957.54 1153.06 1985.91 1304.28 2014.28 1436.6C2028.9 1498.27 2029.55 1562.43 2016.18 1624.38C2002.81 1686.33 1975.75 1744.51 1936.99 1794.67C1898.22 1844.83 1848.73 1885.7 1792.13 1914.28C1735.54 1942.87 1673.26 1958.45 1609.87 1959.89C1546.47 1961.33 1483.55 1948.59 1425.71 1922.61C1367.87 1896.62 1316.58 1858.04 1275.57 1809.7C1234.57 1761.35 1204.9 1704.46 1188.72 1643.17C1172.55 1581.89 1170.28 1517.77 1182.09 1455.5C1213.61 1329.49 1201 1209.77 1144.26 1096.35L1059.15 973.487C1002.41 904.177 926.756 853.77 832.189 822.266C739.546 786.652 662.274 719.793 613.742 633.255C565.211 546.718 548.474 445.948 566.428 348.381C584.381 250.813 635.896 162.588 712.058 98.9697C788.219 35.3514 884.237 0.342911 983.496 0.00164683Z" fill="white"/>
</svg>
